solid Default
  facet normal 0.000000e+00 0.000000e+00 -1.000000e+00
    outer loop
      vertex -5.000000e+00 1.467671e+00 0.000000e+00
      vertex -4.890738e+00 4.586346e+00 0.000000e+00
      vertex -4.890738e+00 -1.651005e+00 0.000000e+00
    endloop
  endfacet
  facet normal 0.000000e+00 0.000000e+00 -1.000000e+00
    outer loop
      vertex -4.890738e+00 -1.651005e+00 0.000000e+00
      vertex -4.890738e+00 4.586346e+00 0.000000e+00
      vertex -4.567728e+00 7.568721e+00 0.000000e+00
    endloop
  endfacet
  facet normal 0.000000e+00 0.000000e+00 -1.000000e+00
    outer loop
      vertex -4.890738e+00 -1.651005e+00 0.000000e+00
      vertex -4.567728e+00 7.568721e+00 0.000000e+00
      vertex -4.045085e+00 1.028445e+01 0.000000e+00
    endloop
  endfacet
  facet normal 0.000000e+00 0.000000e+00 -1.000000e+00
    outer loop
      vertex -4.890738e+00 -1.651005e+00 0.000000e+00
      vertex -4.045085e+00 1.028445e+01 0.000000e+00
      vertex -3.345653e+00 1.261484e+01 0.000000e+00
    endloop
  endfacet
  facet normal 0.000000e+00 0.000000e+00 -1.000000e+00
    outer loop
      vertex -4.890738e+00 -1.651005e+00 0.000000e+00
      vertex -3.345653e+00 1.261484e+01 0.000000e+00
      vertex -2.500000e+00 1.445805e+01 0.000000e+00
    endloop
  endfacet
  facet normal 0.000000e+00 0.000000e+00 -1.000000e+00
    outer loop
      vertex -4.890738e+00 -1.651005e+00 0.000000e+00
      vertex -2.500000e+00 1.445805e+01 0.000000e+00
      vertex -1.545085e+00 1.573352e+01 0.000000e+00
    endloop
  endfacet
  facet normal 0.000000e+00 0.000000e+00 -1.000000e+00
    outer loop
      vertex -4.890738e+00 -1.651005e+00 0.000000e+00
      vertex -1.545085e+00 1.573352e+01 0.000000e+00
      vertex -5.226430e-01 1.638550e+01 0.000000e+00
    endloop
  endfacet
  facet normal 0.000000e+00 0.000000e+00 -1.000000e+00
    outer loop
      vertex -4.890738e+00 -1.651005e+00 0.000000e+00
      vertex -5.226430e-01 1.638550e+01 0.000000e+00
      vertex 5.226430e-01 1.638550e+01 0.000000e+00
    endloop
  endfacet
  facet normal 0.000000e+00 0.000000e+00 -1.000000e+00
    outer loop
      vertex -4.890738e+00 -1.651005e+00 0.000000e+00
      vertex 5.226430e-01 1.638550e+01 0.000000e+00
      vertex 1.545085e+00 1.573352e+01 0.000000e+00
    endloop
  endfacet
  facet normal 0.000000e+00 0.000000e+00 -1.000000e+00
    outer loop
      vertex -4.890738e+00 -1.651005e+00 0.000000e+00
      vertex 1.545085e+00 1.573352e+01 0.000000e+00
      vertex 2.500000e+00 1.445805e+01 0.000000e+00
    endloop
  endfacet
  facet normal 0.000000e+00 0.000000e+00 -1.000000e+00
    outer loop
      vertex -4.890738e+00 -1.651005e+00 0.000000e+00
      vertex 2.500000e+00 1.445805e+01 0.000000e+00
      vertex 3.345653e+00 1.261484e+01 0.000000e+00
    endloop
  endfacet
  facet normal 0.000000e+00 0.000000e+00 -1.000000e+00
    outer loop
      vertex -4.890738e+00 -1.651005e+00 0.000000e+00
      vertex 3.345653e+00 1.261484e+01 0.000000e+00
      vertex 4.045085e+00 1.028445e+01 0.000000e+00
    endloop
  endfacet
  facet normal 0.000000e+00 0.000000e+00 -1.000000e+00
    outer loop
      vertex -4.890738e+00 -1.651005e+00 0.000000e+00
      vertex 4.045085e+00 1.028445e+01 0.000000e+00
      vertex 4.567728e+00 7.568721e+00 0.000000e+00
    endloop
  endfacet
  facet normal 0.000000e+00 0.000000e+00 -1.000000e+00
    outer loop
      vertex -4.890738e+00 -1.651005e+00 0.000000e+00
      vertex 4.567728e+00 7.568721e+00 0.000000e+00
      vertex 4.890738e+00 4.586346e+00 0.000000e+00
    endloop
  endfacet
  facet normal 0.000000e+00 0.000000e+00 -1.000000e+00
    outer loop
      vertex -4.890738e+00 -1.651005e+00 0.000000e+00
      vertex 4.890738e+00 4.586346e+00 0.000000e+00
      vertex 5.000000e+00 1.467671e+00 0.000000e+00
    endloop
  endfacet
  facet normal 0.000000e+00 0.000000e+00 -1.000000e+00
    outer loop
      vertex -4.890738e+00 -1.651005e+00 0.000000e+00
      vertex 5.000000e+00 1.467671e+00 0.000000e+00
      vertex 4.890738e+00 -1.651005e+00 0.000000e+00
    endloop
  endfacet
  facet normal 0.000000e+00 0.000000e+00 -1.000000e+00
    outer loop
      vertex -4.890738e+00 -1.651005e+00 0.000000e+00
      vertex 4.890738e+00 -1.651005e+00 0.000000e+00
      vertex 4.567728e+00 -4.633378e+00 0.000000e+00
    endloop
  endfacet
  facet normal 0.000000e+00 0.000000e+00 -1.000000e+00
    outer loop
      vertex -4.890738e+00 -1.651005e+00 0.000000e+00
      vertex 4.567728e+00 -4.633378e+00 0.000000e+00
      vertex 4.045085e+00 -7.349108e+00 0.000000e+00
    endloop
  endfacet
  facet normal 0.000000e+00 0.000000e+00 -1.000000e+00
    outer loop
      vertex -4.890738e+00 -1.651005e+00 0.000000e+00
      vertex 4.045085e+00 -7.349108e+00 0.000000e+00
      vertex 3.345653e+00 -9.679501e+00 0.000000e+00
    endloop
  endfacet
  facet normal 0.000000e+00 0.000000e+00 -1.000000e+00
    outer loop
      vertex -4.890738e+00 -1.651005e+00 0.000000e+00
      vertex 3.345653e+00 -9.679501e+00 0.000000e+00
      vertex 2.500000e+00 -1.152271e+01 0.000000e+00
    endloop
  endfacet
  facet normal 0.000000e+00 0.000000e+00 -1.000000e+00
    outer loop
      vertex -4.890738e+00 -1.651005e+00 0.000000e+00
      vertex 2.500000e+00 -1.152271e+01 0.000000e+00
      vertex 2.354883e+00 -1.171654e+01 0.000000e+00
    endloop
  endfacet
  facet normal 0.000000e+00 0.000000e+00 -1.000000e+00
    outer loop
      vertex 2.354883e+00 -1.171654e+01 0.000000e+00
      vertex 3.000000e+00 -1.353233e+01 0.000000e+00
      vertex -4.890738e+00 -1.651005e+00 0.000000e+00
    endloop
  endfacet
  facet normal 0.000000e+00 0.000000e+00 -1.000000e+00
    outer loop
      vertex 2.427051e+00 -1.176897e+01 0.000000e+00
      vertex 3.000000e+00 -1.353233e+01 0.000000e+00
      vertex 2.354883e+00 -1.171654e+01 0.000000e+00
    endloop
  endfacet
  facet normal 0.000000e+00 0.000000e+00 -1.000000e+00
    outer loop
      vertex -4.890738e+00 -1.651005e+00 0.000000e+00
      vertex 3.000000e+00 -1.353233e+01 0.000000e+00
      vertex 2.427051e+00 -1.529568e+01 0.000000e+00
    endloop
  endfacet
  facet normal 0.000000e+00 0.000000e+00 -1.000000e+00
    outer loop
      vertex 3.090170e-01 -1.448339e+01 0.000000e+00
      vertex 2.427051e+00 -1.529568e+01 0.000000e+00
      vertex 9.270510e-01 -1.638550e+01 0.000000e+00
    endloop
  endfacet
  facet normal 0.000000e+00 0.000000e+00 -1.000000e+00
    outer loop
      vertex -8.090170e-01 -1.412011e+01 0.000000e+00
      vertex 9.270510e-01 -1.638550e+01 0.000000e+00
      vertex -9.270510e-01 -1.638550e+01 0.000000e+00
    endloop
  endfacet
  facet normal 0.000000e+00 0.000000e+00 -1.000000e+00
    outer loop
      vertex -2.427051e+00 -1.176897e+01 0.000000e+00
      vertex -9.270510e-01 -1.638550e+01 0.000000e+00
      vertex -2.427051e+00 -1.529568e+01 0.000000e+00
    endloop
  endfacet
  facet normal 0.000000e+00 0.000000e+00 -1.000000e+00
    outer loop
      vertex -2.354883e+00 -1.171654e+01 0.000000e+00
      vertex -9.270510e-01 -1.638550e+01 0.000000e+00
      vertex -2.427051e+00 -1.176897e+01 0.000000e+00
    endloop
  endfacet
  facet normal -0.000000e+00 -0.000000e+00 -1.000000e+00
    outer loop
      vertex -2.500000e+00 -1.152271e+01 0.000000e+00
      vertex -4.890738e+00 -1.651005e+00 0.000000e+00
      vertex -2.354883e+00 -1.171654e+01 0.000000e+00
    endloop
  endfacet
  facet normal 0.000000e+00 0.000000e+00 -1.000000e+00
    outer loop
      vertex -4.890738e+00 -1.651005e+00 0.000000e+00
      vertex -9.270510e-01 -1.638550e+01 0.000000e+00
      vertex -2.354883e+00 -1.171654e+01 0.000000e+00
    endloop
  endfacet
  facet normal -0.000000e+00 -0.000000e+00 -1.000000e+00
    outer loop
      vertex -4.045085e+00 -7.349108e+00 0.000000e+00
      vertex -4.890738e+00 -1.651005e+00 0.000000e+00
      vertex -3.345653e+00 -9.679501e+00 0.000000e+00
    endloop
  endfacet
  facet normal 0.000000e+00 0.000000e+00 -1.000000e+00
    outer loop
      vertex -4.890738e+00 -1.651005e+00 0.000000e+00
      vertex -2.500000e+00 -1.152271e+01 0.000000e+00
      vertex -3.345653e+00 -9.679501e+00 0.000000e+00
    endloop
  endfacet
  facet normal 0.000000e+00 0.000000e+00 -1.000000e+00
    outer loop
      vertex -8.090170e-01 -1.294454e+01 0.000000e+00
      vertex -4.890738e+00 -1.651005e+00 0.000000e+00
      vertex 3.090170e-01 -1.258127e+01 0.000000e+00
    endloop
  endfacet
  facet normal 0.000000e+00 0.000000e+00 -1.000000e+00
    outer loop
      vertex -4.890738e+00 -1.651005e+00 0.000000e+00
      vertex -4.045085e+00 -7.349108e+00 0.000000e+00
      vertex -4.567728e+00 -4.633378e+00 0.000000e+00
    endloop
  endfacet
  facet normal 0.000000e+00 0.000000e+00 -1.000000e+00
    outer loop
      vertex 3.090170e-01 -1.448339e+01 0.000000e+00
      vertex 9.270510e-01 -1.638550e+01 0.000000e+00
      vertex -8.090170e-01 -1.412011e+01 0.000000e+00
    endloop
  endfacet
  facet normal 0.000000e+00 0.000000e+00 -1.000000e+00
    outer loop
      vertex -4.890738e+00 -1.651005e+00 0.000000e+00
      vertex -8.090170e-01 -1.294454e+01 0.000000e+00
      vertex -9.270510e-01 -1.638550e+01 0.000000e+00
    endloop
  endfacet
  facet normal 0.000000e+00 0.000000e+00 -1.000000e+00
    outer loop
      vertex -8.090170e-01 -1.294454e+01 0.000000e+00
      vertex -8.090170e-01 -1.412011e+01 0.000000e+00
      vertex -9.270510e-01 -1.638550e+01 0.000000e+00
    endloop
  endfacet
  facet normal 0.000000e+00 0.000000e+00 -1.000000e+00
    outer loop
      vertex 1.000000e+00 -1.353233e+01 0.000000e+00
      vertex 2.427051e+00 -1.529568e+01 0.000000e+00
      vertex 3.090170e-01 -1.448339e+01 0.000000e+00
    endloop
  endfacet
  facet normal 0.000000e+00 0.000000e+00 -1.000000e+00
    outer loop
      vertex -4.890738e+00 -1.651005e+00 0.000000e+00
      vertex 2.427051e+00 -1.529568e+01 0.000000e+00
      vertex 1.000000e+00 -1.353233e+01 0.000000e+00
    endloop
  endfacet
  facet normal 0.000000e+00 0.000000e+00 -1.000000e+00
    outer loop
      vertex -4.890738e+00 -1.651005e+00 0.000000e+00
      vertex 1.000000e+00 -1.353233e+01 0.000000e+00
      vertex 3.090170e-01 -1.258127e+01 0.000000e+00
    endloop
  endfacet
  facet normal 0.000000e+00 0.000000e+00 -1.000000e+00
    outer loop
      vertex -2.427051e+00 -1.176897e+01 0.000000e+00
      vertex -2.427051e+00 -1.529568e+01 0.000000e+00
      vertex -3.000000e+00 -1.353233e+01 0.000000e+00
    endloop
  endfacet
  facet normal -9.993868e-01 3.501299e-02 0.000000e+00
    outer loop
      vertex -5.000000e+00 1.467671e+00 0.000000e+00
      vertex -5.000000e+00 1.467671e+00 4.000000e+00
      vertex -4.890738e+00 4.586346e+00 0.000000e+00
    endloop
  endfacet
  facet normal -9.993868e-01 3.501299e-02 0.000000e+00
    outer loop
      vertex -4.890738e+00 4.586346e+00 0.000000e+00
      vertex -5.000000e+00 1.467671e+00 4.000000e+00
      vertex -4.890738e+00 4.586346e+00 4.000000e+00
    endloop
  endfacet
  facet normal -9.993868e-01 -3.501299e-02 -0.000000e+00
    outer loop
      vertex -5.000000e+00 1.467671e+00 0.000000e+00
      vertex -4.890738e+00 -1.651005e+00 0.000000e+00
      vertex -5.000000e+00 1.467671e+00 4.000000e+00
    endloop
  endfacet
  facet normal -9.993868e-01 -3.501299e-02 0.000000e+00
    outer loop
      vertex -5.000000e+00 1.467671e+00 4.000000e+00
      vertex -4.890738e+00 -1.651005e+00 0.000000e+00
      vertex -4.890738e+00 -1.651005e+00 4.000000e+00
    endloop
  endfacet
  facet normal -9.941859e-01 -1.076770e-01 -0.000000e+00
    outer loop
      vertex -4.890738e+00 -1.651005e+00 0.000000e+00
      vertex -4.567728e+00 -4.633378e+00 0.000000e+00
      vertex -4.890738e+00 -1.651005e+00 4.000000e+00
    endloop
  endfacet
  facet normal -9.941859e-01 -1.076770e-01 0.000000e+00
    outer loop
      vertex -4.890738e+00 -1.651005e+00 4.000000e+00
      vertex -4.567728e+00 -4.633378e+00 0.000000e+00
      vertex -4.567728e+00 -4.633378e+00 4.000000e+00
    endloop
  endfacet
  facet normal -9.819806e-01 -1.889819e-01 -0.000000e+00
    outer loop
      vertex -4.567728e+00 -4.633378e+00 0.000000e+00
      vertex -4.045085e+00 -7.349108e+00 0.000000e+00
      vertex -4.567728e+00 -4.633378e+00 4.000000e+00
    endloop
  endfacet
  facet normal -9.819806e-01 -1.889819e-01 0.000000e+00
    outer loop
      vertex -4.567728e+00 -4.633378e+00 4.000000e+00
      vertex -4.045085e+00 -7.349108e+00 0.000000e+00
      vertex -4.045085e+00 -7.349108e+00 4.000000e+00
    endloop
  endfacet
  facet normal -9.577909e-01 -2.874660e-01 -0.000000e+00
    outer loop
      vertex -4.045085e+00 -7.349108e+00 0.000000e+00
      vertex -3.345653e+00 -9.679501e+00 0.000000e+00
      vertex -4.045085e+00 -7.349108e+00 4.000000e+00
    endloop
  endfacet
  facet normal -9.577909e-01 -2.874660e-01 0.000000e+00
    outer loop
      vertex -4.045085e+00 -7.349108e+00 4.000000e+00
      vertex -3.345653e+00 -9.679501e+00 0.000000e+00
      vertex -3.345653e+00 -9.679501e+00 4.000000e+00
    endloop
  endfacet
  facet normal -9.089061e-01 -4.170011e-01 -0.000000e+00
    outer loop
      vertex -3.345653e+00 -9.679501e+00 0.000000e+00
      vertex -2.500000e+00 -1.152271e+01 0.000000e+00
      vertex -3.345653e+00 -9.679501e+00 4.000000e+00
    endloop
  endfacet
  facet normal -9.089061e-01 -4.170011e-01 0.000000e+00
    outer loop
      vertex -3.345653e+00 -9.679501e+00 4.000000e+00
      vertex -2.500000e+00 -1.152271e+01 0.000000e+00
      vertex -2.500000e+00 -1.152271e+01 4.000000e+00
    endloop
  endfacet
  facet normal -8.005072e-01 -5.993231e-01 -0.000000e+00
    outer loop
      vertex -2.500000e+00 -1.152271e+01 0.000000e+00
      vertex -2.354883e+00 -1.171654e+01 0.000000e+00
      vertex -2.500000e+00 -1.152271e+01 4.000000e+00
    endloop
  endfacet
  facet normal -8.005072e-01 -5.993231e-01 0.000000e+00
    outer loop
      vertex -2.500000e+00 -1.152271e+01 4.000000e+00
      vertex -2.354883e+00 -1.171654e+01 0.000000e+00
      vertex -2.354883e+00 -1.171654e+01 4.000000e+00
    endloop
  endfacet
  facet normal -5.877851e-01 8.090171e-01 0.000000e+00
    outer loop
      vertex -2.427051e+00 -1.176897e+01 0.000000e+00
      vertex -2.427051e+00 -1.176897e+01 8.000000e+00
      vertex -2.354883e+00 -1.171654e+01 0.000000e+00
    endloop
  endfacet
  facet normal -5.877851e-01 8.090171e-01 0.000000e+00
    outer loop
      vertex -2.354883e+00 -1.171654e+01 4.000000e+00
      vertex -2.427051e+00 -1.176897e+01 8.000000e+00
      vertex -9.270510e-01 -1.067916e+01 8.000000e+00
    endloop
  endfacet
  facet normal -5.877851e-01 8.090171e-01 0.000000e+00
    outer loop
      vertex -2.354883e+00 -1.171654e+01 0.000000e+00
      vertex -2.427051e+00 -1.176897e+01 8.000000e+00
      vertex -2.354883e+00 -1.171654e+01 4.000000e+00
    endloop
  endfacet
  facet normal -5.877851e-01 8.090171e-01 0.000000e+00
    outer loop
      vertex -2.354883e+00 -1.171654e+01 4.000000e+00
      vertex -9.270510e-01 -1.067916e+01 8.000000e+00
      vertex -9.270510e-01 -1.067916e+01 4.000000e+00
    endloop
  endfacet
  facet normal -9.510565e-01 3.090169e-01 0.000000e+00
    outer loop
      vertex -3.000000e+00 -1.353233e+01 0.000000e+00
      vertex -3.000000e+00 -1.353233e+01 8.000000e+00
      vertex -2.427051e+00 -1.176897e+01 0.000000e+00
    endloop
  endfacet
  facet normal -9.510565e-01 3.090169e-01 0.000000e+00
    outer loop
      vertex -2.427051e+00 -1.176897e+01 0.000000e+00
      vertex -3.000000e+00 -1.353233e+01 8.000000e+00
      vertex -2.427051e+00 -1.176897e+01 8.000000e+00
    endloop
  endfacet
  facet normal -9.510565e-01 -3.090169e-01 -0.000000e+00
    outer loop
      vertex -3.000000e+00 -1.353233e+01 0.000000e+00
      vertex -2.427051e+00 -1.529568e+01 0.000000e+00
      vertex -3.000000e+00 -1.353233e+01 8.000000e+00
    endloop
  endfacet
  facet normal -9.510565e-01 -3.090169e-01 0.000000e+00
    outer loop
      vertex -3.000000e+00 -1.353233e+01 8.000000e+00
      vertex -2.427051e+00 -1.529568e+01 0.000000e+00
      vertex -2.427051e+00 -1.529568e+01 8.000000e+00
    endloop
  endfacet
  facet normal -5.877851e-01 -8.090171e-01 0.000000e+00
    outer loop
      vertex -2.427051e+00 -1.529568e+01 8.000000e+00
      vertex -2.427051e+00 -1.529568e+01 0.000000e+00
      vertex -9.270510e-01 -1.638550e+01 0.000000e+00
    endloop
  endfacet
  facet normal -5.877851e-01 -8.090171e-01 0.000000e+00
    outer loop
      vertex -9.270510e-01 -1.638550e+01 8.000000e+00
      vertex -2.427051e+00 -1.529568e+01 8.000000e+00
      vertex -9.270510e-01 -1.638550e+01 0.000000e+00
    endloop
  endfacet
  facet normal 0.000000e+00 -1.000000e+00 0.000000e+00
    outer loop
      vertex -9.270510e-01 -1.638550e+01 8.000000e+00
      vertex -9.270510e-01 -1.638550e+01 0.000000e+00
      vertex 9.270510e-01 -1.638550e+01 0.000000e+00
    endloop
  endfacet
  facet normal 0.000000e+00 -1.000000e+00 0.000000e+00
    outer loop
      vertex 9.270510e-01 -1.638550e+01 8.000000e+00
      vertex -9.270510e-01 -1.638550e+01 8.000000e+00
      vertex 9.270510e-01 -1.638550e+01 0.000000e+00
    endloop
  endfacet
  facet normal 5.877851e-01 -8.090171e-01 0.000000e+00
    outer loop
      vertex 9.270510e-01 -1.638550e+01 8.000000e+00
      vertex 9.270510e-01 -1.638550e+01 0.000000e+00
      vertex 2.427051e+00 -1.529568e+01 0.000000e+00
    endloop
  endfacet
  facet normal 5.877851e-01 -8.090171e-01 0.000000e+00
    outer loop
      vertex 2.427051e+00 -1.529568e+01 8.000000e+00
      vertex 9.270510e-01 -1.638550e+01 8.000000e+00
      vertex 2.427051e+00 -1.529568e+01 0.000000e+00
    endloop
  endfacet
  facet normal 9.510565e-01 -3.090169e-01 0.000000e+00
    outer loop
      vertex 2.427051e+00 -1.529568e+01 8.000000e+00
      vertex 2.427051e+00 -1.529568e+01 0.000000e+00
      vertex 3.000000e+00 -1.353233e+01 0.000000e+00
    endloop
  endfacet
  facet normal 9.510565e-01 -3.090169e-01 0.000000e+00
    outer loop
      vertex 3.000000e+00 -1.353233e+01 8.000000e+00
      vertex 2.427051e+00 -1.529568e+01 8.000000e+00
      vertex 3.000000e+00 -1.353233e+01 0.000000e+00
    endloop
  endfacet
  facet normal 9.510565e-01 3.090169e-01 0.000000e+00
    outer loop
      vertex 3.000000e+00 -1.353233e+01 0.000000e+00
      vertex 2.427051e+00 -1.176897e+01 0.000000e+00
      vertex 2.427051e+00 -1.176897e+01 8.000000e+00
    endloop
  endfacet
  facet normal 9.510565e-01 3.090169e-01 0.000000e+00
    outer loop
      vertex 3.000000e+00 -1.353233e+01 8.000000e+00
      vertex 3.000000e+00 -1.353233e+01 0.000000e+00
      vertex 2.427051e+00 -1.176897e+01 8.000000e+00
    endloop
  endfacet
  facet normal 5.877851e-01 8.090171e-01 0.000000e+00
    outer loop
      vertex 9.270510e-01 -1.067916e+01 4.000000e+00
      vertex 9.270510e-01 -1.067916e+01 8.000000e+00
      vertex 2.354883e+00 -1.171654e+01 4.000000e+00
    endloop
  endfacet
  facet normal 5.877851e-01 8.090171e-01 0.000000e+00
    outer loop
      vertex 2.354883e+00 -1.171654e+01 4.000000e+00
      vertex 9.270510e-01 -1.067916e+01 8.000000e+00
      vertex 2.427051e+00 -1.176897e+01 8.000000e+00
    endloop
  endfacet
  facet normal 5.877851e-01 8.090171e-01 0.000000e+00
    outer loop
      vertex 2.354883e+00 -1.171654e+01 4.000000e+00
      vertex 2.427051e+00 -1.176897e+01 8.000000e+00
      vertex 2.427051e+00 -1.176897e+01 0.000000e+00
    endloop
  endfacet
  facet normal 5.877851e-01 8.090171e-01 0.000000e+00
    outer loop
      vertex 2.354883e+00 -1.171654e+01 4.000000e+00
      vertex 2.427051e+00 -1.176897e+01 0.000000e+00
      vertex 2.354883e+00 -1.171654e+01 0.000000e+00
    endloop
  endfacet
  facet normal 8.005072e-01 -5.993231e-01 0.000000e+00
    outer loop
      vertex 2.354883e+00 -1.171654e+01 4.000000e+00
      vertex 2.354883e+00 -1.171654e+01 0.000000e+00
      vertex 2.500000e+00 -1.152271e+01 0.000000e+00
    endloop
  endfacet
  facet normal 8.005072e-01 -5.993231e-01 0.000000e+00
    outer loop
      vertex 2.500000e+00 -1.152271e+01 4.000000e+00
      vertex 2.354883e+00 -1.171654e+01 4.000000e+00
      vertex 2.500000e+00 -1.152271e+01 0.000000e+00
    endloop
  endfacet
  facet normal 9.089061e-01 -4.170011e-01 0.000000e+00
    outer loop
      vertex 2.500000e+00 -1.152271e+01 4.000000e+00
      vertex 2.500000e+00 -1.152271e+01 0.000000e+00
      vertex 3.345653e+00 -9.679501e+00 0.000000e+00
    endloop
  endfacet
  facet normal 9.089061e-01 -4.170011e-01 0.000000e+00
    outer loop
      vertex 3.345653e+00 -9.679501e+00 4.000000e+00
      vertex 2.500000e+00 -1.152271e+01 4.000000e+00
      vertex 3.345653e+00 -9.679501e+00 0.000000e+00
    endloop
  endfacet
  facet normal 9.577909e-01 -2.874660e-01 0.000000e+00
    outer loop
      vertex 3.345653e+00 -9.679501e+00 4.000000e+00
      vertex 3.345653e+00 -9.679501e+00 0.000000e+00
      vertex 4.045085e+00 -7.349108e+00 0.000000e+00
    endloop
  endfacet
  facet normal 9.577909e-01 -2.874660e-01 0.000000e+00
    outer loop
      vertex 4.045085e+00 -7.349108e+00 4.000000e+00
      vertex 3.345653e+00 -9.679501e+00 4.000000e+00
      vertex 4.045085e+00 -7.349108e+00 0.000000e+00
    endloop
  endfacet
  facet normal 9.819806e-01 -1.889819e-01 0.000000e+00
    outer loop
      vertex 4.045085e+00 -7.349108e+00 4.000000e+00
      vertex 4.045085e+00 -7.349108e+00 0.000000e+00
      vertex 4.567728e+00 -4.633378e+00 0.000000e+00
    endloop
  endfacet
  facet normal 9.819806e-01 -1.889819e-01 0.000000e+00
    outer loop
      vertex 4.567728e+00 -4.633378e+00 4.000000e+00
      vertex 4.045085e+00 -7.349108e+00 4.000000e+00
      vertex 4.567728e+00 -4.633378e+00 0.000000e+00
    endloop
  endfacet
  facet normal 9.941859e-01 -1.076770e-01 0.000000e+00
    outer loop
      vertex 4.567728e+00 -4.633378e+00 4.000000e+00
      vertex 4.567728e+00 -4.633378e+00 0.000000e+00
      vertex 4.890738e+00 -1.651005e+00 0.000000e+00
    endloop
  endfacet
  facet normal 9.941859e-01 -1.076770e-01 0.000000e+00
    outer loop
      vertex 4.890738e+00 -1.651005e+00 4.000000e+00
      vertex 4.567728e+00 -4.633378e+00 4.000000e+00
      vertex 4.890738e+00 -1.651005e+00 0.000000e+00
    endloop
  endfacet
  facet normal 9.993868e-01 -3.501299e-02 0.000000e+00
    outer loop
      vertex 4.890738e+00 -1.651005e+00 4.000000e+00
      vertex 4.890738e+00 -1.651005e+00 0.000000e+00
      vertex 5.000000e+00 1.467671e+00 0.000000e+00
    endloop
  endfacet
  facet normal 9.993868e-01 -3.501299e-02 0.000000e+00
    outer loop
      vertex 5.000000e+00 1.467671e+00 4.000000e+00
      vertex 4.890738e+00 -1.651005e+00 4.000000e+00
      vertex 5.000000e+00 1.467671e+00 0.000000e+00
    endloop
  endfacet
  facet normal 9.993868e-01 3.501299e-02 0.000000e+00
    outer loop
      vertex 5.000000e+00 1.467671e+00 0.000000e+00
      vertex 4.890738e+00 4.586346e+00 0.000000e+00
      vertex 4.890738e+00 4.586346e+00 4.000000e+00
    endloop
  endfacet
  facet normal 9.993868e-01 3.501299e-02 0.000000e+00
    outer loop
      vertex 5.000000e+00 1.467671e+00 4.000000e+00
      vertex 5.000000e+00 1.467671e+00 0.000000e+00
      vertex 4.890738e+00 4.586346e+00 4.000000e+00
    endloop
  endfacet
  facet normal 9.941859e-01 1.076770e-01 0.000000e+00
    outer loop
      vertex 4.890738e+00 4.586346e+00 0.000000e+00
      vertex 4.567728e+00 7.568721e+00 0.000000e+00
      vertex 4.567728e+00 7.568721e+00 4.000000e+00
    endloop
  endfacet
  facet normal 9.941859e-01 1.076770e-01 0.000000e+00
    outer loop
      vertex 4.890738e+00 4.586346e+00 4.000000e+00
      vertex 4.890738e+00 4.586346e+00 0.000000e+00
      vertex 4.567728e+00 7.568721e+00 4.000000e+00
    endloop
  endfacet
  facet normal 9.819806e-01 1.889819e-01 0.000000e+00
    outer loop
      vertex 4.567728e+00 7.568721e+00 0.000000e+00
      vertex 4.045085e+00 1.028445e+01 0.000000e+00
      vertex 4.045085e+00 1.028445e+01 4.000000e+00
    endloop
  endfacet
  facet normal 9.819806e-01 1.889819e-01 0.000000e+00
    outer loop
      vertex 4.567728e+00 7.568721e+00 4.000000e+00
      vertex 4.567728e+00 7.568721e+00 0.000000e+00
      vertex 4.045085e+00 1.028445e+01 4.000000e+00
    endloop
  endfacet
  facet normal 9.577909e-01 2.874660e-01 0.000000e+00
    outer loop
      vertex 4.045085e+00 1.028445e+01 0.000000e+00
      vertex 3.345653e+00 1.261484e+01 0.000000e+00
      vertex 3.345653e+00 1.261484e+01 4.000000e+00
    endloop
  endfacet
  facet normal 9.577909e-01 2.874660e-01 0.000000e+00
    outer loop
      vertex 4.045085e+00 1.028445e+01 4.000000e+00
      vertex 4.045085e+00 1.028445e+01 0.000000e+00
      vertex 3.345653e+00 1.261484e+01 4.000000e+00
    endloop
  endfacet
  facet normal 9.089061e-01 4.170011e-01 0.000000e+00
    outer loop
      vertex 3.345653e+00 1.261484e+01 0.000000e+00
      vertex 2.500000e+00 1.445805e+01 0.000000e+00
      vertex 2.500000e+00 1.445805e+01 4.000000e+00
    endloop
  endfacet
  facet normal 9.089061e-01 4.170011e-01 0.000000e+00
    outer loop
      vertex 3.345653e+00 1.261484e+01 4.000000e+00
      vertex 3.345653e+00 1.261484e+01 0.000000e+00
      vertex 2.500000e+00 1.445805e+01 4.000000e+00
    endloop
  endfacet
  facet normal 8.005072e-01 5.993231e-01 0.000000e+00
    outer loop
      vertex 2.500000e+00 1.445805e+01 0.000000e+00
      vertex 1.545085e+00 1.573352e+01 0.000000e+00
      vertex 1.545085e+00 1.573352e+01 4.000000e+00
    endloop
  endfacet
  facet normal 8.005072e-01 5.993231e-01 0.000000e+00
    outer loop
      vertex 2.500000e+00 1.445805e+01 4.000000e+00
      vertex 2.500000e+00 1.445805e+01 0.000000e+00
      vertex 1.545085e+00 1.573352e+01 4.000000e+00
    endloop
  endfacet
  facet normal 5.376592e-01 8.431623e-01 0.000000e+00
    outer loop
      vertex 5.226430e-01 1.638550e+01 0.000000e+00
      vertex 5.226430e-01 1.638550e+01 4.000000e+00
      vertex 1.545085e+00 1.573352e+01 0.000000e+00
    endloop
  endfacet
  facet normal 5.376592e-01 8.431623e-01 0.000000e+00
    outer loop
      vertex 1.545085e+00 1.573352e+01 0.000000e+00
      vertex 5.226430e-01 1.638550e+01 4.000000e+00
      vertex 1.545085e+00 1.573352e+01 4.000000e+00
    endloop
  endfacet
  facet normal 0.000000e+00 1.000000e+00 0.000000e+00
    outer loop
      vertex -5.226430e-01 1.638550e+01 0.000000e+00
      vertex -5.226430e-01 1.638550e+01 4.000000e+00
      vertex 5.226430e-01 1.638550e+01 0.000000e+00
    endloop
  endfacet
  facet normal 0.000000e+00 1.000000e+00 0.000000e+00
    outer loop
      vertex 5.226430e-01 1.638550e+01 0.000000e+00
      vertex -5.226430e-01 1.638550e+01 4.000000e+00
      vertex 5.226430e-01 1.638550e+01 4.000000e+00
    endloop
  endfacet
  facet normal -5.376592e-01 8.431623e-01 0.000000e+00
    outer loop
      vertex -1.545085e+00 1.573352e+01 0.000000e+00
      vertex -1.545085e+00 1.573352e+01 4.000000e+00
      vertex -5.226430e-01 1.638550e+01 0.000000e+00
    endloop
  endfacet
  facet normal -5.376592e-01 8.431623e-01 0.000000e+00
    outer loop
      vertex -5.226430e-01 1.638550e+01 0.000000e+00
      vertex -1.545085e+00 1.573352e+01 4.000000e+00
      vertex -5.226430e-01 1.638550e+01 4.000000e+00
    endloop
  endfacet
  facet normal -8.005072e-01 5.993231e-01 0.000000e+00
    outer loop
      vertex -2.500000e+00 1.445805e+01 0.000000e+00
      vertex -2.500000e+00 1.445805e+01 4.000000e+00
      vertex -1.545085e+00 1.573352e+01 0.000000e+00
    endloop
  endfacet
  facet normal -8.005072e-01 5.993231e-01 0.000000e+00
    outer loop
      vertex -1.545085e+00 1.573352e+01 0.000000e+00
      vertex -2.500000e+00 1.445805e+01 4.000000e+00
      vertex -1.545085e+00 1.573352e+01 4.000000e+00
    endloop
  endfacet
  facet normal -9.089061e-01 4.170011e-01 0.000000e+00
    outer loop
      vertex -3.345653e+00 1.261484e+01 0.000000e+00
      vertex -3.345653e+00 1.261484e+01 4.000000e+00
      vertex -2.500000e+00 1.445805e+01 0.000000e+00
    endloop
  endfacet
  facet normal -9.089061e-01 4.170011e-01 0.000000e+00
    outer loop
      vertex -2.500000e+00 1.445805e+01 0.000000e+00
      vertex -3.345653e+00 1.261484e+01 4.000000e+00
      vertex -2.500000e+00 1.445805e+01 4.000000e+00
    endloop
  endfacet
  facet normal -9.577909e-01 2.874660e-01 0.000000e+00
    outer loop
      vertex -4.045085e+00 1.028445e+01 0.000000e+00
      vertex -4.045085e+00 1.028445e+01 4.000000e+00
      vertex -3.345653e+00 1.261484e+01 0.000000e+00
    endloop
  endfacet
  facet normal -9.577909e-01 2.874660e-01 0.000000e+00
    outer loop
      vertex -3.345653e+00 1.261484e+01 0.000000e+00
      vertex -4.045085e+00 1.028445e+01 4.000000e+00
      vertex -3.345653e+00 1.261484e+01 4.000000e+00
    endloop
  endfacet
  facet normal -9.819806e-01 1.889819e-01 0.000000e+00
    outer loop
      vertex -4.567728e+00 7.568721e+00 0.000000e+00
      vertex -4.567728e+00 7.568721e+00 4.000000e+00
      vertex -4.045085e+00 1.028445e+01 0.000000e+00
    endloop
  endfacet
  facet normal -9.819806e-01 1.889819e-01 0.000000e+00
    outer loop
      vertex -4.045085e+00 1.028445e+01 0.000000e+00
      vertex -4.567728e+00 7.568721e+00 4.000000e+00
      vertex -4.045085e+00 1.028445e+01 4.000000e+00
    endloop
  endfacet
  facet normal -9.941859e-01 1.076770e-01 0.000000e+00
    outer loop
      vertex -4.890738e+00 4.586346e+00 0.000000e+00
      vertex -4.890738e+00 4.586346e+00 4.000000e+00
      vertex -4.567728e+00 7.568721e+00 0.000000e+00
    endloop
  endfacet
  facet normal -9.941859e-01 1.076770e-01 0.000000e+00
    outer loop
      vertex -4.567728e+00 7.568721e+00 0.000000e+00
      vertex -4.890738e+00 4.586346e+00 4.000000e+00
      vertex -4.567728e+00 7.568721e+00 4.000000e+00
    endloop
  endfacet
  facet normal 1.000000e+00 0.000000e+00 0.000000e+00
    outer loop
      vertex -8.090170e-01 -1.294454e+01 0.000000e+00
      vertex -8.090170e-01 -1.294454e+01 8.000000e+00
      vertex -8.090170e-01 -1.412011e+01 8.000000e+00
    endloop
  endfacet
  facet normal 1.000000e+00 0.000000e+00 0.000000e+00
    outer loop
      vertex -8.090170e-01 -1.412011e+01 0.000000e+00
      vertex -8.090170e-01 -1.294454e+01 0.000000e+00
      vertex -8.090170e-01 -1.412011e+01 8.000000e+00
    endloop
  endfacet
  facet normal 3.090180e-01 -9.510562e-01 0.000000e+00
    outer loop
      vertex 3.090170e-01 -1.258127e+01 0.000000e+00
      vertex 3.090170e-01 -1.258127e+01 8.000000e+00
      vertex -8.090170e-01 -1.294454e+01 8.000000e+00
    endloop
  endfacet
  facet normal 3.090180e-01 -9.510562e-01 0.000000e+00
    outer loop
      vertex -8.090170e-01 -1.294454e+01 0.000000e+00
      vertex 3.090170e-01 -1.258127e+01 0.000000e+00
      vertex -8.090170e-01 -1.294454e+01 8.000000e+00
    endloop
  endfacet
  facet normal -8.090171e-01 -5.877851e-01 0.000000e+00
    outer loop
      vertex 1.000000e+00 -1.353233e+01 8.000000e+00
      vertex 3.090170e-01 -1.258127e+01 8.000000e+00
      vertex 1.000000e+00 -1.353233e+01 0.000000e+00
    endloop
  endfacet
  facet normal -8.090171e-01 -5.877851e-01 0.000000e+00
    outer loop
      vertex 1.000000e+00 -1.353233e+01 0.000000e+00
      vertex 3.090170e-01 -1.258127e+01 8.000000e+00
      vertex 3.090170e-01 -1.258127e+01 0.000000e+00
    endloop
  endfacet
  facet normal -8.090171e-01 5.877851e-01 0.000000e+00
    outer loop
      vertex 1.000000e+00 -1.353233e+01 8.000000e+00
      vertex 1.000000e+00 -1.353233e+01 0.000000e+00
      vertex 3.090170e-01 -1.448339e+01 8.000000e+00
    endloop
  endfacet
  facet normal -8.090171e-01 5.877851e-01 0.000000e+00
    outer loop
      vertex 3.090170e-01 -1.448339e+01 8.000000e+00
      vertex 1.000000e+00 -1.353233e+01 0.000000e+00
      vertex 3.090170e-01 -1.448339e+01 0.000000e+00
    endloop
  endfacet
  facet normal 3.090180e-01 9.510562e-01 0.000000e+00
    outer loop
      vertex 3.090170e-01 -1.448339e+01 8.000000e+00
      vertex 3.090170e-01 -1.448339e+01 0.000000e+00
      vertex -8.090170e-01 -1.412011e+01 8.000000e+00
    endloop
  endfacet
  facet normal 3.090180e-01 9.510562e-01 0.000000e+00
    outer loop
      vertex -8.090170e-01 -1.412011e+01 8.000000e+00
      vertex 3.090170e-01 -1.448339e+01 0.000000e+00
      vertex -8.090170e-01 -1.412011e+01 0.000000e+00
    endloop
  endfacet
  facet normal 0.000000e+00 0.000000e+00 1.000000e+00
    outer loop
      vertex -4.890738e+00 4.586346e+00 4.000000e+00
      vertex -5.000000e+00 1.467671e+00 4.000000e+00
      vertex -4.890738e+00 -1.651005e+00 4.000000e+00
    endloop
  endfacet
  facet normal 0.000000e+00 0.000000e+00 1.000000e+00
    outer loop
      vertex -4.045085e+00 -7.349108e+00 4.000000e+00
      vertex -4.890738e+00 4.586346e+00 4.000000e+00
      vertex -4.567728e+00 -4.633378e+00 4.000000e+00
    endloop
  endfacet
  facet normal 0.000000e+00 0.000000e+00 1.000000e+00
    outer loop
      vertex -4.567728e+00 -4.633378e+00 4.000000e+00
      vertex -4.890738e+00 4.586346e+00 4.000000e+00
      vertex -4.890738e+00 -1.651005e+00 4.000000e+00
    endloop
  endfacet
  facet normal 0.000000e+00 0.000000e+00 1.000000e+00
    outer loop
      vertex -3.345653e+00 -9.679501e+00 4.000000e+00
      vertex -4.890738e+00 4.586346e+00 4.000000e+00
      vertex -4.045085e+00 -7.349108e+00 4.000000e+00
    endloop
  endfacet
  facet normal 0.000000e+00 0.000000e+00 1.000000e+00
    outer loop
      vertex -2.500000e+00 -1.152271e+01 4.000000e+00
      vertex -4.890738e+00 4.586346e+00 4.000000e+00
      vertex -3.345653e+00 -9.679501e+00 4.000000e+00
    endloop
  endfacet
  facet normal 0.000000e+00 0.000000e+00 1.000000e+00
    outer loop
      vertex -2.354883e+00 -1.171654e+01 4.000000e+00
      vertex -4.890738e+00 4.586346e+00 4.000000e+00
      vertex -2.500000e+00 -1.152271e+01 4.000000e+00
    endloop
  endfacet
  facet normal 0.000000e+00 0.000000e+00 1.000000e+00
    outer loop
      vertex -9.270510e-01 -1.067916e+01 4.000000e+00
      vertex -4.890738e+00 4.586346e+00 4.000000e+00
      vertex -2.354883e+00 -1.171654e+01 4.000000e+00
    endloop
  endfacet
  facet normal 0.000000e+00 0.000000e+00 1.000000e+00
    outer loop
      vertex 9.270510e-01 -1.067916e+01 4.000000e+00
      vertex -4.890738e+00 4.586346e+00 4.000000e+00
      vertex -9.270510e-01 -1.067916e+01 4.000000e+00
    endloop
  endfacet
  facet normal 0.000000e+00 0.000000e+00 1.000000e+00
    outer loop
      vertex 2.354883e+00 -1.171654e+01 4.000000e+00
      vertex -4.890738e+00 4.586346e+00 4.000000e+00
      vertex 9.270510e-01 -1.067916e+01 4.000000e+00
    endloop
  endfacet
  facet normal 0.000000e+00 0.000000e+00 1.000000e+00
    outer loop
      vertex 2.500000e+00 -1.152271e+01 4.000000e+00
      vertex -4.890738e+00 4.586346e+00 4.000000e+00
      vertex 2.354883e+00 -1.171654e+01 4.000000e+00
    endloop
  endfacet
  facet normal 0.000000e+00 0.000000e+00 1.000000e+00
    outer loop
      vertex 3.345653e+00 -9.679501e+00 4.000000e+00
      vertex -4.890738e+00 4.586346e+00 4.000000e+00
      vertex 2.500000e+00 -1.152271e+01 4.000000e+00
    endloop
  endfacet
  facet normal 0.000000e+00 0.000000e+00 1.000000e+00
    outer loop
      vertex 4.045085e+00 -7.349108e+00 4.000000e+00
      vertex -4.890738e+00 4.586346e+00 4.000000e+00
      vertex 3.345653e+00 -9.679501e+00 4.000000e+00
    endloop
  endfacet
  facet normal 0.000000e+00 0.000000e+00 1.000000e+00
    outer loop
      vertex 4.567728e+00 -4.633378e+00 4.000000e+00
      vertex -4.890738e+00 4.586346e+00 4.000000e+00
      vertex 4.045085e+00 -7.349108e+00 4.000000e+00
    endloop
  endfacet
  facet normal 0.000000e+00 0.000000e+00 1.000000e+00
    outer loop
      vertex 4.890738e+00 -1.651005e+00 4.000000e+00
      vertex -4.890738e+00 4.586346e+00 4.000000e+00
      vertex 4.567728e+00 -4.633378e+00 4.000000e+00
    endloop
  endfacet
  facet normal 0.000000e+00 0.000000e+00 1.000000e+00
    outer loop
      vertex 5.000000e+00 1.467671e+00 4.000000e+00
      vertex -4.890738e+00 4.586346e+00 4.000000e+00
      vertex 4.890738e+00 -1.651005e+00 4.000000e+00
    endloop
  endfacet
  facet normal 0.000000e+00 0.000000e+00 1.000000e+00
    outer loop
      vertex 4.890738e+00 4.586346e+00 4.000000e+00
      vertex -4.890738e+00 4.586346e+00 4.000000e+00
      vertex 5.000000e+00 1.467671e+00 4.000000e+00
    endloop
  endfacet
  facet normal 0.000000e+00 0.000000e+00 1.000000e+00
    outer loop
      vertex 4.567728e+00 7.568721e+00 4.000000e+00
      vertex -4.890738e+00 4.586346e+00 4.000000e+00
      vertex 4.890738e+00 4.586346e+00 4.000000e+00
    endloop
  endfacet
  facet normal 0.000000e+00 0.000000e+00 1.000000e+00
    outer loop
      vertex 4.045085e+00 1.028445e+01 4.000000e+00
      vertex -4.890738e+00 4.586346e+00 4.000000e+00
      vertex 4.567728e+00 7.568721e+00 4.000000e+00
    endloop
  endfacet
  facet normal 0.000000e+00 0.000000e+00 1.000000e+00
    outer loop
      vertex 3.345653e+00 1.261484e+01 4.000000e+00
      vertex -4.890738e+00 4.586346e+00 4.000000e+00
      vertex 4.045085e+00 1.028445e+01 4.000000e+00
    endloop
  endfacet
  facet normal 0.000000e+00 0.000000e+00 1.000000e+00
    outer loop
      vertex 2.500000e+00 1.445805e+01 4.000000e+00
      vertex -4.890738e+00 4.586346e+00 4.000000e+00
      vertex 3.345653e+00 1.261484e+01 4.000000e+00
    endloop
  endfacet
  facet normal 0.000000e+00 0.000000e+00 1.000000e+00
    outer loop
      vertex 1.545085e+00 1.573352e+01 4.000000e+00
      vertex -4.890738e+00 4.586346e+00 4.000000e+00
      vertex 2.500000e+00 1.445805e+01 4.000000e+00
    endloop
  endfacet
  facet normal 0.000000e+00 0.000000e+00 1.000000e+00
    outer loop
      vertex 5.226430e-01 1.638550e+01 4.000000e+00
      vertex -4.890738e+00 4.586346e+00 4.000000e+00
      vertex 1.545085e+00 1.573352e+01 4.000000e+00
    endloop
  endfacet
  facet normal 0.000000e+00 0.000000e+00 1.000000e+00
    outer loop
      vertex -5.226430e-01 1.638550e+01 4.000000e+00
      vertex -4.890738e+00 4.586346e+00 4.000000e+00
      vertex 5.226430e-01 1.638550e+01 4.000000e+00
    endloop
  endfacet
  facet normal 0.000000e+00 0.000000e+00 1.000000e+00
    outer loop
      vertex -1.545085e+00 1.573352e+01 4.000000e+00
      vertex -4.890738e+00 4.586346e+00 4.000000e+00
      vertex -5.226430e-01 1.638550e+01 4.000000e+00
    endloop
  endfacet
  facet normal 0.000000e+00 0.000000e+00 1.000000e+00
    outer loop
      vertex -2.500000e+00 1.445805e+01 4.000000e+00
      vertex -4.890738e+00 4.586346e+00 4.000000e+00
      vertex -1.545085e+00 1.573352e+01 4.000000e+00
    endloop
  endfacet
  facet normal 0.000000e+00 0.000000e+00 1.000000e+00
    outer loop
      vertex -3.345653e+00 1.261484e+01 4.000000e+00
      vertex -4.890738e+00 4.586346e+00 4.000000e+00
      vertex -2.500000e+00 1.445805e+01 4.000000e+00
    endloop
  endfacet
  facet normal 0.000000e+00 0.000000e+00 1.000000e+00
    outer loop
      vertex -4.045085e+00 1.028445e+01 4.000000e+00
      vertex -4.890738e+00 4.586346e+00 4.000000e+00
      vertex -3.345653e+00 1.261484e+01 4.000000e+00
    endloop
  endfacet
  facet normal 0.000000e+00 0.000000e+00 1.000000e+00
    outer loop
      vertex -4.567728e+00 7.568721e+00 4.000000e+00
      vertex -4.890738e+00 4.586346e+00 4.000000e+00
      vertex -4.045085e+00 1.028445e+01 4.000000e+00
    endloop
  endfacet
  facet normal 0.000000e+00 1.000000e+00 0.000000e+00
    outer loop
      vertex -9.270510e-01 -1.067916e+01 4.000000e+00
      vertex -9.270510e-01 -1.067916e+01 8.000000e+00
      vertex 9.270510e-01 -1.067916e+01 4.000000e+00
    endloop
  endfacet
  facet normal 0.000000e+00 1.000000e+00 0.000000e+00
    outer loop
      vertex 9.270510e-01 -1.067916e+01 4.000000e+00
      vertex -9.270510e-01 -1.067916e+01 8.000000e+00
      vertex 9.270510e-01 -1.067916e+01 8.000000e+00
    endloop
  endfacet
  facet normal 0.000000e+00 0.000000e+00 1.000000e+00
    outer loop
      vertex -2.427051e+00 -1.176897e+01 8.000000e+00
      vertex -3.000000e+00 -1.353233e+01 8.000000e+00
      vertex -2.427051e+00 -1.529568e+01 8.000000e+00
    endloop
  endfacet
  facet normal 0.000000e+00 0.000000e+00 1.000000e+00
    outer loop
      vertex -8.090170e-01 -1.412011e+01 8.000000e+00
      vertex -2.427051e+00 -1.176897e+01 8.000000e+00
      vertex -9.270510e-01 -1.638550e+01 8.000000e+00
    endloop
  endfacet
  facet normal 0.000000e+00 0.000000e+00 1.000000e+00
    outer loop
      vertex -9.270510e-01 -1.638550e+01 8.000000e+00
      vertex -2.427051e+00 -1.176897e+01 8.000000e+00
      vertex -2.427051e+00 -1.529568e+01 8.000000e+00
    endloop
  endfacet
  facet normal 0.000000e+00 0.000000e+00 1.000000e+00
    outer loop
      vertex 9.270510e-01 -1.067916e+01 8.000000e+00
      vertex -2.427051e+00 -1.176897e+01 8.000000e+00
      vertex 2.427051e+00 -1.176897e+01 8.000000e+00
    endloop
  endfacet
  facet normal 0.000000e+00 0.000000e+00 1.000000e+00
    outer loop
      vertex -9.270510e-01 -1.067916e+01 8.000000e+00
      vertex -2.427051e+00 -1.176897e+01 8.000000e+00
      vertex 9.270510e-01 -1.067916e+01 8.000000e+00
    endloop
  endfacet
  facet normal 0.000000e+00 0.000000e+00 1.000000e+00
    outer loop
      vertex 9.270510e-01 -1.638550e+01 8.000000e+00
      vertex -8.090170e-01 -1.412011e+01 8.000000e+00
      vertex -9.270510e-01 -1.638550e+01 8.000000e+00
    endloop
  endfacet
  facet normal 0.000000e+00 0.000000e+00 1.000000e+00
    outer loop
      vertex 3.090170e-01 -1.258127e+01 8.000000e+00
      vertex 1.000000e+00 -1.353233e+01 8.000000e+00
      vertex 3.000000e+00 -1.353233e+01 8.000000e+00
    endloop
  endfacet
  facet normal 0.000000e+00 0.000000e+00 1.000000e+00
    outer loop
      vertex 2.427051e+00 -1.176897e+01 8.000000e+00
      vertex 3.090170e-01 -1.258127e+01 8.000000e+00
      vertex 3.000000e+00 -1.353233e+01 8.000000e+00
    endloop
  endfacet
  facet normal 0.000000e+00 0.000000e+00 1.000000e+00
    outer loop
      vertex 2.427051e+00 -1.176897e+01 8.000000e+00
      vertex -2.427051e+00 -1.176897e+01 8.000000e+00
      vertex 3.090170e-01 -1.258127e+01 8.000000e+00
    endloop
  endfacet
  facet normal 0.000000e+00 0.000000e+00 1.000000e+00
    outer loop
      vertex 3.000000e+00 -1.353233e+01 8.000000e+00
      vertex 1.000000e+00 -1.353233e+01 8.000000e+00
      vertex 2.427051e+00 -1.529568e+01 8.000000e+00
    endloop
  endfacet
  facet normal 0.000000e+00 0.000000e+00 1.000000e+00
    outer loop
      vertex 1.000000e+00 -1.353233e+01 8.000000e+00
      vertex 3.090170e-01 -1.448339e+01 8.000000e+00
      vertex 2.427051e+00 -1.529568e+01 8.000000e+00
    endloop
  endfacet
  facet normal 0.000000e+00 0.000000e+00 1.000000e+00
    outer loop
      vertex 2.427051e+00 -1.529568e+01 8.000000e+00
      vertex 3.090170e-01 -1.448339e+01 8.000000e+00
      vertex 9.270510e-01 -1.638550e+01 8.000000e+00
    endloop
  endfacet
  facet normal 0.000000e+00 0.000000e+00 1.000000e+00
    outer loop
      vertex -8.090170e-01 -1.412011e+01 8.000000e+00
      vertex -8.090170e-01 -1.294454e+01 8.000000e+00
      vertex -2.427051e+00 -1.176897e+01 8.000000e+00
    endloop
  endfacet
  facet normal 0.000000e+00 0.000000e+00 1.000000e+00
    outer loop
      vertex 3.090170e-01 -1.448339e+01 8.000000e+00
      vertex -8.090170e-01 -1.412011e+01 8.000000e+00
      vertex 9.270510e-01 -1.638550e+01 8.000000e+00
    endloop
  endfacet
  facet normal 0.000000e+00 0.000000e+00 1.000000e+00
    outer loop
      vertex -8.090170e-01 -1.294454e+01 8.000000e+00
      vertex 3.090170e-01 -1.258127e+01 8.000000e+00
      vertex -2.427051e+00 -1.176897e+01 8.000000e+00
    endloop
  endfacet
endsolid Default
